<?xml version="1.0" encoding="UTF-8"?>
<svg width="2262px" height="373px" viewBox="0 0 2262 373" version="1.1" xmlns="http://www.w3.org/2000/svg" xmlns:xlink="http://www.w3.org/1999/xlink">
    <!-- Generator: Sketch 52.5 (67469) - http://www.bohemiancoding.com/sketch -->
    <title>border copy</title>
    <desc>Created with Sketch.</desc>
    <g id="border-copy" stroke="none" stroke-width="1" fill="none" fill-rule="evenodd">
        <path d="M0,176.427673 C580,268.742138 1019.33333,303.266247 1318,280 C1616.66667,256.733753 1931.33333,197.067086 2262,101 L2262,459 L0,459 L0,176.427673 Z" id="Rectangle" fill="#EBEBEB"></path>
        <path d="M0,211.946541 C580,292.657233 1019.33333,322.841719 1318,302.5 C1616.66667,282.158281 1931.33333,229.991614 2262,146 L2262,459 L0,459 L0,211.946541 Z" id="Rectangle" fill="#F7F7F7"></path>
        <path d="M2.51132448e-13,229.359596 C580,311.878775 1019.33333,344.592243 1318,327.5 C1616.66667,310.407757 1931.33333,266.574423 2262,196 L2262,459 L0,459 L2.51132448e-13,229.359596 Z" id="Rectangle" fill="#FFFFFF"></path>
    </g>
</svg>